<svg width="108" height="64" viewBox="0 0 108 64" fill="none" xmlns="http://www.w3.org/2000/svg">
<path d="M57.0977 32.2515C63.0334 29.5588 63.9118 20.7724 55.4675 20.7724H45.688L42.0752 27.8574H43.7783L39.4537 44.793H50.7887C59.056 44.8642 62.7764 35.1247 57.0977 32.2515ZM50.7904 38.6316H47.9554L49.0196 34.8122H51.7106C54.8946 35.4407 52.9102 38.7705 50.7852 38.6316H50.7904ZM52.4935 30.4824H50.0856L50.7939 27.1525H53.4848C56.089 27.7897 53.8321 30.6247 52.4935 30.4824Z" fill="#005FAF"/>
<path d="M80.3058 29.8227L84.0175 23.2707L78.9933 20.6492L78.3388 21.4582C75.6287 20.0242 61.4396 22.0033 60.5507 36.0032C61.082 47.7461 74.2398 45.635 75.5298 44.8885L79.1495 37.4077C75.6044 39.741 68.3475 40.8625 68.0385 33.8487C68.6774 28.0571 75.5003 25.9043 80.3058 29.8227ZM98.8299 20.7724H87.4185L83.7901 27.6456H85.6495L77.0523 44.793H85.3856L87.0956 40.6576H92.2067L92.3334 44.793H100L98.8334 20.7655L98.8299 20.7724ZM89.4012 35.09L92.1963 28.4182L92.323 35.09H89.4012ZM27.5615 43.6472L28.0042 43.517L27.5181 42.8434L27.5615 43.6472ZM20.2838 43.5326L20.197 44.1333C20.4175 44.1125 20.69 44.3069 20.7977 43.8764C20.789 43.5448 20.5372 43.5257 20.2838 43.5326ZM23.815 43.5187C23.7785 43.3451 23.6414 43.234 23.2942 43.3451L23.4105 43.9597C23.6952 43.8989 23.8393 43.734 23.815 43.5187ZM15.829 43.0153L15.6935 43.5621C15.9123 43.5708 16.1692 43.7496 16.3151 43.425C16.3255 43.2236 16.3342 43.0205 15.829 43.0153ZM23.5077 44.4198L23.6084 45.0482C23.8428 45.0482 24.0563 44.9128 23.9938 44.6194C23.9313 44.326 23.6969 44.3816 23.5077 44.4198Z" fill="#005FAF"/>
<path d="M32.8131 21.0969C29.123 19.235 25.0526 18.2506 20.9195 18.2205C16.7863 18.1903 12.7021 19.1153 8.98522 20.9233C5.26477 27.4753 5.14498 36.6349 8.98522 44.7512C12.6731 46.6541 16.7573 47.6614 20.9071 47.6916C25.0568 47.7217 29.1553 46.7739 32.8704 44.9248C34.6738 41.2103 35.6061 37.1333 35.5961 33.0042C35.5862 28.8751 34.6344 24.8027 32.8131 21.0969ZM20.025 40.6523H19.5771C19.5396 39.5457 19.1774 38.4746 18.5355 37.5724C15.6188 33.9145 9.66056 36.6679 11.1883 30.4544C11.9835 27.2809 21.0684 25.4076 20.025 40.6523ZM11.197 34.5134C11.8341 35.8103 15.8237 36.0204 17.2091 37.0134C17.8224 37.3952 18.3212 37.9354 18.653 38.5771C18.9849 39.2188 19.1374 39.9381 19.0945 40.6592H18.5737C17.5528 37.5342 14.69 40.0082 12.3984 39.1662C11.6508 38.8156 11.073 38.1825 10.7921 37.406C10.5111 36.6296 10.55 35.7734 10.9001 35.0256C10.9817 34.845 11.0824 34.6749 11.197 34.5134ZM18.466 44.706L18.6813 43.0012L19.0667 43.0307L18.8931 44.9057C18.8433 45.0796 18.7364 45.2316 18.5895 45.3372C18.4426 45.4428 18.2644 45.4957 18.0837 45.4875C17.903 45.4793 17.7304 45.4103 17.5937 45.2918C17.4571 45.1733 17.3644 45.0122 17.3306 44.8345L17.5303 42.8883L17.9886 42.9613L17.7889 44.5915C17.8202 45.1296 18.3619 45.0984 18.466 44.706ZM16.4122 45.1696L15.973 45.0637C16.0233 44.7008 16.4556 43.9613 15.6032 43.9613L15.3654 44.9265L14.8793 44.8362L15.4001 42.5133C16.6605 42.6505 16.7699 43.0012 16.789 43.3814C16.7386 43.6748 16.6605 43.8779 16.4088 43.9283C16.7074 44.1922 16.4157 44.7529 16.4122 45.1696ZM13.6171 42.5654C13.4022 42.9232 13.266 43.3227 13.2178 43.7373C13.1814 44.2112 13.6379 44.1123 13.7508 44.0567C13.8636 44.0012 13.9105 43.6297 13.9105 43.6297L13.5911 43.5238L13.697 43.2043L14.4175 43.4439L14.0702 44.6418L13.7768 44.5619L13.8046 44.3762C13.4452 44.5394 12.7907 44.4161 12.7126 44.0029C12.6953 43.3588 12.881 42.7252 13.2456 42.1939C13.6102 41.7356 14.5008 42.1835 14.5234 42.4595C14.5288 42.6588 14.4988 42.8575 14.4348 43.0463L14.0998 42.9804L14.1501 42.7234C14.1796 42.5672 13.7473 42.3918 13.6171 42.5637V42.5654ZM20.1552 44.5151L20.0684 45.5463L19.7108 45.5307L19.8427 43.0863C20.7351 43.1054 21.2455 43.2286 21.2316 43.8588C21.1778 44.7269 20.4799 44.5255 20.1587 44.5133L20.1552 44.5151ZM21.0441 40.654H20.4469C20.3931 38.536 20.7941 34.6627 19.6865 31.8121C18.8445 29.6506 16.7108 28.6871 16.2386 26.9336C15.4904 24.1715 16.7594 21.182 21.0441 20.9511C21.7505 20.9627 22.4443 21.14 23.0697 21.4687C23.6951 21.7973 24.2346 22.2682 24.6449 22.8434C25.0551 23.4186 25.3245 24.0821 25.4316 24.7805C25.5386 25.4788 25.4802 26.1925 25.2611 26.8642C24.1743 29.5308 23.0858 29.1472 21.7299 31.8034C20.624 34.6506 21.0354 38.3814 21.0354 40.6575L21.0441 40.654ZM27.6777 44.5724L27.2628 44.7165L27.1309 42.2564L27.617 42.1245L28.8184 44.1557L28.4902 44.371L28.0909 43.7981L27.6309 43.9717L27.6777 44.5724ZM22.8392 40.654H22.3601C22.7542 35.2165 29.5892 36.3954 30.2124 34.51C30.7157 35.134 30.9522 35.9314 30.8706 36.7289C30.789 37.5264 30.3959 38.2594 29.7767 38.7686C26.9729 40.7773 24.2854 37.279 22.8323 40.654H22.8392ZM25.3739 43.4005L25.5892 44.5307C25.7194 44.7928 25.8132 44.7425 26.018 44.7165C26.2559 44.5428 26.2055 44.3692 26.1604 44.1592L26.5753 44.1019C26.683 44.9196 26.2941 45.0046 26.0041 45.0602C25.3792 45.1036 25.2576 44.9838 25.0858 44.1731C24.9885 43.4786 24.8184 42.7477 25.4 42.6106C26.3566 42.4647 26.301 42.8953 26.3878 43.1974L25.9729 43.2685C25.9069 43.0064 25.8114 42.9057 25.6014 42.9213C25.5102 42.9555 25.4356 43.0233 25.393 43.1109C25.3503 43.1984 25.3429 43.299 25.3722 43.3918L25.3739 43.4005ZM24.5059 44.5724C24.525 44.93 24.4052 45.1626 24.1778 45.246L23.2056 45.4456L22.8202 43.0863C23.0163 43.0533 23.999 42.6939 24.2351 43.3432C24.1618 43.4381 24.1102 43.548 24.0839 43.665C24.0577 43.782 24.0573 43.9034 24.083 44.0205C24.1086 44.1377 24.1596 44.2478 24.2324 44.3431C24.3052 44.4385 24.3979 44.5167 24.5042 44.5724H24.5059ZM22.0077 32.7322C24.1743 26.6333 29.1256 27.7114 30.2298 30.4544C31.7367 35.9579 26.8896 34.4475 23.7802 36.7044C23.192 37.1802 22.7229 37.7867 22.4104 38.4757C22.0978 39.1647 21.9504 39.9171 21.9799 40.6731H21.4486C21.2229 38.0169 21.4087 35.3433 22.0042 32.7443L22.0077 32.7322Z" fill="#005FAF"/>
</svg>
